<svg width="1440" height="1024" viewBox="0 0 1440 1024" fill="none" xmlns="http://www.w3.org/2000/svg">
<path d="M133 141L134.796 146.528H140.608L135.906 149.944L137.702 155.472L133 152.056L128.298 155.472L130.094 149.944L125.392 146.528H131.204L133 141Z" fill="white"/>
<path d="M323 88L324.796 93.5279H330.608L325.906 96.9443L327.702 102.472L323 99.0557L318.298 102.472L320.094 96.9443L315.392 93.5279H321.204L323 88Z" fill="white"/>
<path d="M573 202L574.796 207.528H580.608L575.906 210.944L577.702 216.472L573 213.056L568.298 216.472L570.094 210.944L565.392 207.528H571.204L573 202Z" fill="white"/>
<path d="M813 118L814.796 123.528H820.608L815.906 126.944L817.702 132.472L813 129.056L808.298 132.472L810.094 126.944L805.392 123.528H811.204L813 118Z" fill="white"/>
<path d="M968 73L969.796 78.5279H975.608L970.906 81.9443L972.702 87.4721L968 84.0557L963.298 87.4721L965.094 81.9443L960.392 78.5279H966.204L968 73Z" fill="white"/>
<path d="M1383 133L1384.8 138.528H1390.61L1385.91 141.944L1387.7 147.472L1383 144.056L1378.3 147.472L1380.09 141.944L1375.39 138.528H1381.2L1383 133Z" fill="white"/>
<path d="M209 436L210.796 441.528H216.608L211.906 444.944L213.702 450.472L209 447.056L204.298 450.472L206.094 444.944L201.392 441.528H207.204L209 436Z" fill="white"/>
<path d="M407 329L408.796 334.528H414.608L409.906 337.944L411.702 343.472L407 340.056L402.298 343.472L404.094 337.944L399.392 334.528H405.204L407 329Z" fill="white"/>
<path d="M622 406L623.796 411.528H629.608L624.906 414.944L626.702 420.472L622 417.056L617.298 420.472L619.094 414.944L614.392 411.528H620.204L622 406Z" fill="white"/>
<path d="M910 451L911.796 456.528H917.608L912.906 459.944L914.702 465.472L910 462.056L905.298 465.472L907.094 459.944L902.392 456.528H908.204L910 451Z" fill="white"/>
<path d="M1105 314L1106.8 319.528H1112.61L1107.91 322.944L1109.7 328.472L1105 325.056L1100.3 328.472L1102.09 322.944L1097.39 319.528H1103.2L1105 314Z" fill="white"/>
<path d="M1297 369L1298.8 374.528H1304.61L1299.91 377.944L1301.7 383.472L1297 380.056L1292.3 383.472L1294.09 377.944L1289.39 374.528H1295.2L1297 369Z" fill="white"/>
<path d="M40 591L41.7961 596.528H47.6085L42.9062 599.944L44.7023 605.472L40 602.056L35.2977 605.472L37.0938 599.944L32.3915 596.528H38.2039L40 591Z" fill="white"/>
<path d="M275 720L276.796 725.528H282.608L277.906 728.944L279.702 734.472L275 731.056L270.298 734.472L272.094 728.944L267.392 725.528H273.204L275 720Z" fill="white"/>
<path d="M677 536L678.796 541.528H684.608L679.906 544.944L681.702 550.472L677 547.056L672.298 550.472L674.094 544.944L669.392 541.528H675.204L677 536Z" fill="white"/>
<path d="M783 642L784.796 647.528H790.608L785.906 650.944L787.702 656.472L783 653.056L778.298 656.472L780.094 650.944L775.392 647.528H781.204L783 642Z" fill="white"/>
<path d="M1052 576L1053.8 581.528H1059.61L1054.91 584.944L1056.7 590.472L1052 587.056L1047.3 590.472L1049.09 584.944L1044.39 581.528H1050.2L1052 576Z" fill="white"/>
<path d="M1353 672L1354.8 677.528H1360.61L1355.91 680.944L1357.7 686.472L1353 683.056L1348.3 686.472L1350.09 680.944L1345.39 677.528H1351.2L1353 672Z" fill="white"/>
<path d="M1282 895L1283.8 900.528H1289.61L1284.91 903.944L1286.7 909.472L1282 906.056L1277.3 909.472L1279.09 903.944L1274.39 900.528H1280.2L1282 895Z" fill="white"/>
<path d="M1135 832L1136.8 837.528H1142.61L1137.91 840.944L1139.7 846.472L1135 843.056L1130.3 846.472L1132.09 840.944L1127.39 837.528H1133.2L1135 832Z" fill="white"/>
<path d="M858 949L859.796 954.528H865.608L860.906 957.944L862.702 963.472L858 960.056L853.298 963.472L855.094 957.944L850.392 954.528H856.204L858 949Z" fill="white"/>
<path d="M514 979L515.796 984.528H521.608L516.906 987.944L518.702 993.472L514 990.056L509.298 993.472L511.094 987.944L506.392 984.528H512.204L514 979Z" fill="white"/>
<path d="M367 865L368.796 870.528H374.608L369.906 873.944L371.702 879.472L367 876.056L362.298 879.472L364.094 873.944L359.392 870.528H365.204L367 865Z" fill="white"/>
<path d="M70 910L71.7961 915.528H77.6085L72.9062 918.944L74.7023 924.472L70 921.056L65.2977 924.472L67.0938 918.944L62.3915 915.528H68.2039L70 910Z" fill="white"/>
</svg>
