<svg xmlns="http://www.w3.org/2000/svg" width="1440" height="1024" viewBox="0 0 1440 1024" fill="none">
    <circle cx="83" cy="60" r="6" fill="white" />
    <circle cx="115" cy="930" r="6" fill="white" />
    <circle cx="366" cy="866" r="6" fill="white" />
    <circle cx="671" cy="866" r="6" fill="white" />
    <circle cx="753" cy="816" r="6" fill="white" />
    <circle cx="989" cy="898" r="6" fill="white" />
    <circle cx="1243" cy="943" r="6" fill="white" />
    <circle cx="1294" cy="668" r="6" fill="white" />
    <circle cx="1034" cy="558" r="6" fill="white" />
    <circle cx="859" cy="636" r="6" fill="white" />
    <circle cx="582" cy="610" r="6" fill="white" />
    <circle cx="302" cy="681" r="6" fill="white" />
    <circle cx="38" cy="558" r="6" fill="white" />
    <circle cx="1386" cy="460" r="6" fill="white" />
    <circle cx="1142" cy="412" r="6" fill="white" />
    <circle cx="824" cy="348" r="6" fill="white" />
    <circle cx="513" cy="396" r="6" fill="white" />
    <circle cx="401" cy="296" r="6" fill="white" />
    <circle cx="139" cy="380" r="6" fill="white" />
    <circle cx="1326" cy="111" r="6" fill="white" />
    <circle cx="1076" cy="76" r="6" fill="white" />
    <circle cx="891" cy="196" r="6" fill="white" />
    <circle cx="566" cy="127" r="6" fill="white" />
    <circle cx="334" cy="180" r="6" fill="white" />
</svg>