<svg width="47" height="38" viewBox="0 0 47 38" fill="none" xmlns="http://www.w3.org/2000/svg">
    <path
        d="M12.6899 12.9792L5.76364 18.7505L12.6899 24.5217C12.9196 24.71 13.1098 24.9418 13.2494 25.2039C13.3891 25.466 13.4755 25.7532 13.5036 26.0489C13.5317 26.3445 13.501 26.6428 13.4133 26.9265C13.3256 27.2103 13.1826 27.4739 12.9925 27.702C12.8024 27.9302 12.5691 28.1185 12.3059 28.2561C12.0426 28.3937 11.7548 28.4777 11.4589 28.5035C11.1631 28.5293 10.865 28.4962 10.582 28.4062C10.299 28.3163 10.0366 28.1711 9.80989 27.9792L0.809888 20.4792C0.556409 20.2681 0.352466 20.0038 0.212507 19.705C0.072549 19.4063 0 19.0804 0 18.7505C0 18.4206 0.072549 18.0947 0.212507 17.796C0.352466 17.4972 0.556409 17.2329 0.809888 17.0217L9.80989 9.52174C10.269 9.14546 10.8583 8.96588 11.4492 9.02211C12.0402 9.07835 12.5849 9.36584 12.9649 9.82195C13.3448 10.2781 13.5291 10.8658 13.4776 11.4572C13.4261 12.0486 13.143 12.5957 12.6899 12.9792ZM45.6899 17.0217L36.6899 9.52174C36.4632 9.32984 36.2008 9.18472 35.9178 9.09473C35.6348 9.00475 35.3367 8.97169 35.0408 8.99746C34.745 9.02323 34.4571 9.10732 34.1939 9.24487C33.9307 9.38243 33.6973 9.57074 33.5073 9.79893C33.3172 10.0271 33.1742 10.2907 33.0865 10.5744C32.9987 10.8582 32.9681 11.1565 32.9962 11.4521C33.0243 11.7478 33.1107 12.0349 33.2504 12.297C33.39 12.5591 33.5802 12.791 33.8099 12.9792L40.7361 18.7505L33.8099 24.5217C33.5802 24.71 33.39 24.9418 33.2504 25.2039C33.1107 25.466 33.0243 25.7532 32.9962 26.0489C32.9681 26.3445 32.9987 26.6428 33.0865 26.9265C33.1742 27.2103 33.3172 27.4739 33.5073 27.702C33.6973 27.9302 33.9307 28.1185 34.1939 28.2561C34.4571 28.3937 34.745 28.4777 35.0408 28.5035C35.3367 28.5293 35.6348 28.4962 35.9178 28.4062C36.2008 28.3163 36.4632 28.1711 36.6899 27.9792L45.6899 20.4792C45.9434 20.2681 46.1473 20.0038 46.2873 19.705C46.4272 19.4063 46.4998 19.0804 46.4998 18.7505C46.4998 18.4206 46.4272 18.0947 46.2873 17.796C46.1473 17.4972 45.9434 17.2329 45.6899 17.0217ZM30.0186 0.135485C29.7409 0.0344796 29.446 -0.0108191 29.1507 0.0021764C28.8555 0.0151719 28.5657 0.086207 28.2979 0.211224C28.0301 0.336241 27.7895 0.51279 27.59 0.730787C27.3905 0.948784 27.2358 1.20396 27.1349 1.48174L15.1349 34.4817C14.9315 35.0424 14.959 35.6609 15.2115 36.2013C15.4639 36.7417 15.9206 37.1598 16.4811 37.3636C16.7272 37.4545 16.9875 37.5008 17.2499 37.5005C17.7118 37.5006 18.1626 37.3585 18.541 37.0935C18.9194 36.8284 19.2071 36.4534 19.3649 36.0192L31.3649 3.01923C31.4659 2.74149 31.5112 2.44657 31.4982 2.15132C31.4852 1.85607 31.4142 1.56627 31.2892 1.29848C31.1641 1.03068 30.9876 0.790142 30.7696 0.590593C30.5516 0.391044 30.2964 0.236397 30.0186 0.135485Z"
        fill="currentColor" />
    <script xmlns="" />
</svg>